<?xml version="1.0" encoding="utf-8"?>
<!-- Generator: Adobe Illustrator 18.1.1, SVG Export Plug-In . SVG Version: 6.00 Build 0)  -->
<svg version="1.1" id="Calque_1" xmlns="http://www.w3.org/2000/svg" xmlns:xlink="http://www.w3.org/1999/xlink" x="0px" y="0px"
	 viewBox="0 0 348.3 60.7" enable-background="new 0 0 348.3 60.7" xml:space="preserve">
<g>
	<path fill="#44B6AE" d="M11.4,12.3c4,0,7,1.1,8.8,3.3c1.7,1.9,2.5,4.6,2.5,8.1v6.9c0,3.4-1.3,6.2-3.9,8.6l5.3,20.9h-7.8l-4.4-18
		c-0.2,0-0.4,0-0.6,0H7.2v18H0V12.3H11.4z M15.7,23.8c0-2.8-1.4-4.2-4.1-4.2H7.2v15.3h4.3c1.1,0,2.1-0.4,2.9-1.2
		c0.8-0.8,1.2-1.8,1.2-2.9V23.8z"/>
	<path fill="#44B6AE" d="M30.4,60.1V12.3h20.5v7.2H37.6v13h9.7v7.2h-9.7v13h13.3v7.2H30.4z"/>
	<path fill="#44B6AE" d="M67.3,60.7c-3.2,0-5.9-1.1-8.1-3.4c-2.2-2.2-3.3-4.9-3.3-8V23.2c0-3.2,1.1-5.9,3.4-8.1
		c2.2-2.2,4.9-3.3,8.1-3.3c3.2,0,5.9,1.1,8.1,3.4c2.2,2.2,3.3,4.9,3.3,8.1v5.5h-7.5V23c0-1.1-0.4-2.1-1.2-2.9
		c-0.8-0.8-1.8-1.2-2.9-1.2c-1.1,0-2.1,0.4-2.9,1.2c-0.8,0.8-1.2,1.8-1.2,2.9v26.2c0,1.1,0.4,2.1,1.2,2.9c0.8,0.8,1.8,1.2,2.9,1.2
		c1.1,0,2.1-0.4,2.9-1.2c0.8-0.8,1.2-1.8,1.2-2.9v-9.4h-4v-7.2h11.5v16.7c0,3.2-1.1,5.9-3.4,8.1C73.1,59.6,70.4,60.7,67.3,60.7z"/>
	<path fill="#44B6AE" d="M122,48.2c0.1,3.3-0.8,6.2-2.6,8.5c-1.2,1.6-2.8,2.7-5,3.4c-1.1,0.4-2.5,0.5-4,0.5c-2.8,0-5.2-0.7-7-2.1
		c-1.6-1.1-2.8-2.7-3.7-4.7c-0.9-2-1.4-4.2-1.6-6.8l6.9-0.5c0.3,2.8,1,4.8,2.2,6.1c0.9,0.9,1.9,1.4,3,1.3c1.6-0.1,2.8-0.8,3.8-2.3
		c0.5-0.7,0.7-1.8,0.7-3.2c0-2-0.9-4-2.7-5.9c-1.4-1.3-3.6-3.4-6.4-6.1c-2.4-2.3-4.1-4.4-5.1-6.2c-1.1-2.1-1.6-4.3-1.6-6.7
		c0-4.4,1.5-7.6,4.4-9.9c1.8-1.3,4-2,6.7-2c2.6,0,4.8,0.6,6.6,1.7c1.4,0.9,2.6,2.1,3.5,3.7c0.9,1.6,1.4,3.4,1.6,5.5l-6.9,1.3
		c-0.2-2-0.8-3.5-1.7-4.6c-0.7-0.8-1.6-1.2-2.9-1.2c-1.3,0-2.3,0.6-3,1.8c-0.6,0.9-0.8,2.1-0.8,3.5c0,2.2,0.9,4.4,2.8,6.7
		c0.7,0.9,1.8,1.9,3.2,3.1c1.7,1.4,2.8,2.4,3.3,2.9c1.8,1.8,3.2,3.5,4.1,5.3c0.5,0.8,0.8,1.6,1.1,2.2C121.6,45.3,122,46.8,122,48.2z
		"/>
	<path fill="#44B6AE" d="M143.3,12.3c3.5,0,6.3,1.1,8.4,3.3c1.9,2.1,2.9,4.8,2.9,8.1v6.9c0,3.2-1.1,5.8-3.3,8.1
		c-2.2,2.2-4.9,3.4-8,3.4h-4.2v18h-7.2V12.3H143.3z M147.6,23.8c0-1.2-0.4-2.3-1.1-3c-0.8-0.8-1.7-1.1-3-1.1h-4.3v15.3h4.3
		c1.1,0,2.1-0.4,2.9-1.2c0.8-0.8,1.2-1.8,1.2-2.9V23.8z"/>
	<path fill="#44B6AE" d="M167.5,39.8v20.3h-7.2V12.3h7.2v20.3h8.7V12.3h7.2v47.8h-7.2V39.8H167.5z"/>
	<path fill="#44B6AE" d="M223.2,60.1h-19.6V12.3h7.2v40.6h12.4V60.1z"/>
	<path fill="#44B6AE" d="M241.8,60.1V12.3h10.8c2.8,0,5.4,0.8,7.7,2.3c2,1.3,3.4,3.2,4.2,5.9c0.5,1.4,0.7,3.1,0.7,5.1
		c0,3.2-0.9,5.8-2.6,7.7c-0.7,0.8-1.6,1.4-2.5,1.9c1.6,0.6,3,1.8,4.1,3.6c0.7,1.2,1.3,2.8,1.6,4.7c0.2,1,0.3,2.1,0.3,3.3
		c0,3-0.6,5.6-1.7,7.7c-0.9,1.7-2.1,3-3.8,4c-1.8,1.1-3.6,1.7-5.5,1.7H241.8z M249.6,31.8h3c2.2,0,3.7-1.1,4.5-3.3
		c0.3-0.8,0.4-1.8,0.4-3c0-2-0.5-3.5-1.4-4.5c-0.9-0.9-2-1.4-3.5-1.4h-3V31.8z M249.6,52.9h3c2.4,0,4.1-1.3,5.1-3.8
		c0.3-0.9,0.5-1.9,0.5-3c0-2.7-0.5-4.6-1.5-5.8c-0.9-1.1-2.3-1.7-4-1.7h-3V52.9z"/>
	<path fill="#44B6AE" d="M272.3,60.1V12.3h20.5v7.2h-13.3v13h9.7v7.2h-9.7v13h13.3v7.2H272.3z"/>
	<path fill="#44B6AE" d="M309.1,12.3c4,0,7,1.1,8.8,3.3c1.7,1.9,2.5,4.6,2.5,8.1v6.9c0,3.4-1.3,6.2-3.9,8.6l5.3,20.9h-7.8l-4.4-18
		c-0.2,0-0.4,0-0.6,0H305v18h-7.2V12.3H309.1z M313.5,23.8c0-2.8-1.4-4.2-4.1-4.2H305v15.3h4.3c1.1,0,2.1-0.4,2.9-1.2
		c0.8-0.8,1.2-1.8,1.2-2.9V23.8z"/>
	<rect x="333.4" y="23.5" fill="#44B6AE" width="7.2" height="36.5"/>
	<rect x="228.1" y="23.5" fill="#44B6AE" width="7.2" height="36.5"/>
	<rect x="189.9" y="23.5" fill="#44B6AE" width="7.2" height="36.5"/>
	<rect x="84.9" y="23.5" fill="#44B6AE" width="7.2" height="36.5"/>
	<rect x="325.8" y="12.3" fill="#44B6AE" width="22.5" height="7.2"/>
	<g>
		<path fill="#44B6AE" d="M30.3,0h20.5v6.2H30.3V0z"/>
	</g>
	<rect x="84.9" y="12.3" fill="#44B6AE" width="7.2" height="7.2"/>
	<rect x="189.9" y="12.3" fill="#44B6AE" width="7.2" height="7.2"/>
	<rect x="228.1" y="12.3" fill="#44B6AE" width="7.2" height="7.2"/>
</g>
</svg>
